<svg xmlns="http://www.w3.org/2000/svg" version="1.1" xmlns:xlink="http://www.w3.org/1999/xlink" xmlns:svgjs="http://svgjs.dev/svgjs" width="128" height="32" viewBox="0 0 2000 550"><g transform="matrix(1,0,0,1,-1.2121212121212466,-0.30662595034681317)"><svg viewBox="0 0 396 109" data-background-color="#001f3f" preserveAspectRatio="xMidYMid meet" height="550" width="2000" xmlns="http://www.w3.org/2000/svg" xmlns:xlink="http://www.w3.org/1999/xlink"><g id="tight-bounds" transform="matrix(1,0,0,1,0.2400000000000091,0.06076768834145696)"><svg viewBox="0 0 395.52 108.8784646233171" height="108.8784646233171" width="395.52"><g><svg viewBox="0 0 395.52 108.8784646233171" height="108.8784646233171" width="395.52"><g><svg viewBox="0 0 395.52 108.8784646233171" height="108.8784646233171" width="395.52"><g><svg viewBox="0 0 395.52 108.8784646233171" height="108.8784646233171" width="395.52"><g><svg viewBox="0 0 395.52 108.8784646233171" height="108.8784646233171" width="395.52"><g id="textblocktransform"><svg viewBox="0 0 395.52 108.8784646233171" height="108.8784646233171" width="395.52" id="textblock"><g><svg viewBox="0 0 395.52 108.8784646233171" height="108.8784646233171" width="395.52"><g transform="matrix(1,0,0,1,0,0)"><svg width="395.52" viewBox="-1.5 -38.8 175.29 48.05" height="108.8784646233171" data-palette-color="url(#d8f3f71a-d220-4d8a-bd30-87a2948be92b)"><g class="wordmark-text-0" data-fill-palette-color="primary" id="text-0"></g></svg></g></svg></g></svg></g></svg></g></svg></g></svg></g></svg></g><defs></defs><mask id="15a6a407-091d-4986-9541-0dfadc975ad9"><g id="SvgjsG1347"><svg viewBox="0 0 395.52 108.8784646233171" height="108.8784646233171" width="395.52"><g><svg viewBox="0 0 395.52 108.8784646233171" height="108.8784646233171" width="395.52"><g><svg viewBox="0 0 395.52 108.8784646233171" height="108.8784646233171" width="395.52"><g><svg viewBox="0 0 395.52 108.8784646233171" height="108.8784646233171" width="395.52"><g><svg viewBox="0 0 395.52 108.8784646233171" height="108.8784646233171" width="395.52"><g id="SvgjsG1346"><svg viewBox="0 0 395.52 108.8784646233171" height="108.8784646233171" width="395.52" id="SvgjsSvg1345"><g><svg viewBox="0 0 395.52 108.8784646233171" height="108.8784646233171" width="395.52"><g transform="matrix(1,0,0,1,0,0)"><svg width="395.52" viewBox="-1.5 -38.8 175.29 48.05" height="108.8784646233171" data-palette-color="url(#d8f3f71a-d220-4d8a-bd30-87a2948be92b)"><g class="wordmark-text-0" data-fill-palette-color="primary" id="SvgjsG1344"><path d="M-1.5 9.25L-0.1 3.05 24.9 3.05 23.45 9.25-1.5 9.25ZM30.9-12.15L35.8-32.85 43.55-34.05 41.65-26.3 49.95-26.3 48.45-20.2 40.2-20.2 38-11Q37.7-9.85 37.62-8.85 37.55-7.85 37.87-7.13 38.2-6.4 39-6 39.8-5.6 41.2-5.6L41.2-5.6Q42.4-5.6 43.52-5.83 44.65-6.05 45.8-6.45L45.8-6.45 46.35-0.75Q44.85-0.2 43.1 0.2 41.35 0.6 38.95 0.6L38.95 0.6Q35.5 0.6 33.6-0.43 31.7-1.45 30.9-3.23 30.1-5 30.2-7.3 30.3-9.6 30.9-12.15L30.9-12.15ZM50.95-10.3L50.95-10.3Q50.95-13.5 52.07-16.5 53.2-19.5 55.25-21.83 57.3-24.15 60.22-25.58 63.15-27 66.7-27L66.7-27Q68.45-27 69.95-26.5 71.45-26 72.57-25.05 73.7-24.1 74.32-22.73 74.95-21.35 74.95-19.6L74.95-19.6Q74.95-16.8 73.7-14.85 72.45-12.9 70.22-11.68 68-10.45 64.95-9.9 61.9-9.35 58.3-9.35L58.3-9.35Q58.65-7.25 59.82-6.38 61-5.5 63.55-5.5L63.55-5.5Q65.15-5.5 66.8-5.78 68.45-6.05 69.9-6.6L69.9-6.6 70.45-0.75Q69.05-0.2 66.87 0.25 64.7 0.7 62.15 0.7L62.15 0.7Q59.05 0.7 56.92-0.18 54.8-1.05 53.47-2.55 52.15-4.05 51.55-6.05 50.95-8.05 50.95-10.3ZM65.5-21.1L65.5-21.1Q62.95-21.1 61.02-19.28 59.1-17.45 58.5-14.45L58.5-14.45Q61.6-14.55 63.5-14.98 65.4-15.4 66.45-16 67.5-16.6 67.85-17.3 68.2-18 68.2-18.7L68.2-18.7Q68.2-21.1 65.5-21.1ZM78.19-12.15L83.09-32.85 90.84-34.05 88.94-26.3 97.24-26.3 95.74-20.2 87.49-20.2 85.29-11Q84.99-9.85 84.92-8.85 84.84-7.85 85.17-7.13 85.49-6.4 86.29-6 87.09-5.6 88.49-5.6L88.49-5.6Q89.69-5.6 90.82-5.83 91.94-6.05 93.09-6.45L93.09-6.45 93.64-0.75Q92.14-0.2 90.39 0.2 88.64 0.6 86.24 0.6L86.24 0.6Q82.79 0.6 80.89-0.43 78.99-1.45 78.19-3.23 77.39-5 77.49-7.3 77.59-9.6 78.19-12.15L78.19-12.15ZM114.49-26.75L114.49-26.75Q116.64-26.75 118.19-26.13 119.74-25.5 120.74-24.38 121.74-23.25 122.24-21.7 122.74-20.15 122.74-18.35L122.74-18.35Q122.74-16.25 122.24-14.2L122.24-14.2 118.84 0 111.39 0 114.69-13.9Q114.89-14.75 115.07-15.7 115.24-16.65 115.24-17.5L115.24-17.5Q115.24-18.8 114.57-19.73 113.89-20.65 111.99-20.65L111.99-20.65Q111.19-20.65 110.47-20.55 109.74-20.45 109.04-20.3L109.04-20.3 104.19 0 96.74 0 105.74-37.6 113.49-38.8 110.44-26.25Q111.44-26.45 112.47-26.6 113.49-26.75 114.49-26.75ZM126.49-10.3L126.49-10.3Q126.49-13.5 127.61-16.5 128.74-19.5 130.79-21.83 132.84-24.15 135.76-25.58 138.69-27 142.24-27L142.24-27Q143.99-27 145.49-26.5 146.99-26 148.11-25.05 149.24-24.1 149.86-22.73 150.49-21.35 150.49-19.6L150.49-19.6Q150.49-16.8 149.24-14.85 147.99-12.9 145.76-11.68 143.54-10.45 140.49-9.9 137.44-9.35 133.84-9.35L133.84-9.35Q134.19-7.25 135.36-6.38 136.54-5.5 139.09-5.5L139.09-5.5Q140.69-5.5 142.34-5.78 143.99-6.05 145.44-6.6L145.44-6.6 145.99-0.75Q144.59-0.2 142.41 0.25 140.24 0.7 137.69 0.7L137.69 0.7Q134.59 0.7 132.46-0.18 130.34-1.05 129.01-2.55 127.69-4.05 127.09-6.05 126.49-8.05 126.49-10.3ZM141.04-21.1L141.04-21.1Q138.49-21.1 136.56-19.28 134.64-17.45 134.04-14.45L134.04-14.45Q137.14-14.55 139.04-14.98 140.94-15.4 141.99-16 143.04-16.6 143.39-17.3 143.74-18 143.74-18.7L143.74-18.7Q143.74-21.1 141.04-21.1ZM173.79-25.9L171.59-19.9Q170.59-20.15 169.61-20.38 168.64-20.6 166.74-20.6L166.74-20.6Q166.04-20.6 165.19-20.48 164.34-20.35 163.79-20.2L163.79-20.2 158.94 0 151.49 0 157.49-24.9Q159.64-25.6 162.31-26.23 164.99-26.85 168.34-26.85L168.34-26.85Q169.59-26.85 171.11-26.63 172.64-26.4 173.79-25.9L173.79-25.9Z" fill="white"></path></g></svg></g></svg></g></svg></g></svg></g></svg></g></svg></g></svg></g><defs><mask></mask></defs></svg><rect width="395.52" height="108.8784646233171" fill="black" stroke="none" visibility="hidden"></rect></g></mask><linearGradient x1="0" x2="1" y1="0.5" y2="0.5" id="d8f3f71a-d220-4d8a-bd30-87a2948be92b"><stop stop-color="#f00b51" offset="0"></stop><stop stop-color="#730062" offset="1"></stop></linearGradient><rect width="395.52" height="108.8784646233171" fill="url(#d8f3f71a-d220-4d8a-bd30-87a2948be92b)" mask="url(#15a6a407-091d-4986-9541-0dfadc975ad9)" data-fill-palette-color="primary"></rect></svg><rect width="395.52" height="108.8784646233171" fill="none" stroke="none" visibility="hidden"></rect></g></svg></g></svg>