<svg xmlns="http://www.w3.org/2000/svg" version="1.1" xmlns:xlink="http://www.w3.org/1999/xlink" xmlns:svgjs="http://svgjs.dev/svgjs" width="100" height="33.1" viewBox="0 0 2000 616"><g transform="matrix(1,0,0,1,-1.2121212121212466,-0.11716526061951527)"><svg viewBox="0 0 396 122" data-background-color="#ffffff" preserveAspectRatio="xMidYMid meet" height="616" width="2000" xmlns="http://www.w3.org/2000/svg" xmlns:xlink="http://www.w3.org/1999/xlink"><g id="tight-bounds" transform="matrix(1,0,0,1,0.2400000000000091,0.023204808109710484)"><svg viewBox="0 0 395.52 121.95359038378056" height="121.95359038378056" width="395.52"><g><svg viewBox="0 0 395.52 121.95359038378056" height="121.95359038378056" width="395.52"><g><svg viewBox="0 0 634.830772427755 195.74204081632652" height="121.95359038378056" width="395.52"><g transform="matrix(1,0,0,1,239.3107724277551,0)"><svg viewBox="0 0 395.52 195.74204081632652" height="195.74204081632652" width="395.52"><g id="textblocktransform"><svg viewBox="0 0 395.52 195.74204081632652" height="195.74204081632652" width="395.52" id="textblock"><g><svg viewBox="0 0 395.52 195.74204081632652" height="195.74204081632652" width="395.52"><g transform="matrix(1,0,0,1,0,0)"><svg width="395.52" viewBox="2.8 -33.4 68.60000000000001 33.949999999999996" height="195.74204081632652" data-palette-color="#000000"><path d="M2.8-23.75L7.8-23.75 7.9-22.3Q11.95-24.15 14.25-24.15L14.25-24.15Q18.3-24.15 20.23-21.78 22.15-19.4 22.15-14.35L22.15-14.35 22.15 0 17 0 17-14.2Q17-16.6 16.15-17.95 15.3-19.3 13.5-19.3 11.7-19.3 7.95-17.55L7.95-17.55 7.95 0 2.8 0 2.8-23.75ZM32-9.1L32-19.15 28.2-19.15 28.2-23.75 32-23.75 32-29.45 37.15-29.95 37.15-23.75 46.05-23.75 46.05-19.15 37.15-19.15 37.15-9.1Q37.15-6.35 37.7-5.25L37.7-5.25Q38.3-4.15 40.3-4.15 42.3-4.15 45.6-4.95L45.6-4.95 46.45-0.45Q42.65 0.55 39.95 0.55L39.95 0.55Q35.15 0.55 33.57-1.6 32-3.75 32-9.1L32-9.1ZM60.7-19.05L55.15-19.05 55.15-23.65 65.84-23.65 65.84-4.6 71.4-4.6 71.4 0 54.75 0 54.75-4.6 60.7-4.6 60.7-19.05ZM60.85-28.03Q59.9-29 59.9-30.3 59.9-31.6 60.8-32.5L60.8-32.5Q61.7-33.4 63-33.4 64.3-33.4 65.2-32.52 66.09-31.65 66.09-30.3 66.09-28.95 65.2-28 64.3-27.05 63.05-27.05 61.8-27.05 60.85-28.03Z" opacity="1" transform="matrix(1,0,0,1,0,0)" fill="#ffffff" class="wordmark-text-0" data-fill-palette-color="primary" id="text-0"></path></svg></g></svg></g></svg></g></svg></g><g transform="matrix(1,0,0,1,0,1.3206332081632581)"><svg viewBox="0 0 193.1007744 193.1007744" height="193.1007744" width="193.1007744"><g><svg xmlns="http://www.w3.org/2000/svg" data-name="Layer 1" viewBox="22 22 56 56" x="0" y="0" height="193.1007744" width="193.1007744" class="icon-icon-0" data-fill-palette-color="accent" id="icon-0"><path d="M37.76 78A15.81 15.81 0 0 0 52.57 67.63l1.61-4.43 2.43 7.3A11 11 0 0 0 78 67V58H70v9a3 3 0 0 1-5.79 0.94L58.58 51.1 69.17 22H60.65L54.51 38.89l-2.07-6.2A15.62 15.62 0 0 0 22 37.62V62.24A15.78 15.78 0 0 0 37.76 78ZM30 37.62a7.62 7.62 0 0 1 14.85-2.41L50.11 51 45.05 64.89A7.76 7.76 0 0 1 30 62.24Z" fill="#ffffff" data-fill-palette-color="accent"></path></svg></g></svg></g></svg></g></svg></g><defs></defs></svg><rect width="395.52" height="121.95359038378056" fill="none" stroke="none" visibility="hidden"></rect></g></svg></g></svg>