<svg xmlns="http://www.w3.org/2000/svg" version="1.1" xmlns:xlink="http://www.w3.org/1999/xlink" xmlns:svgjs="http://svgjs.dev/svgjs" width="256" height="32" viewBox="0 0 2000 217"><g transform="matrix(1,0,0,1,-1.1334897421367032,-10.952613375256547)"><svg viewBox="0 0 396 43" data-background-color="#ffffff" preserveAspectRatio="xMidYMid meet" height="217" width="2000" xmlns="http://www.w3.org/2000/svg" xmlns:xlink="http://www.w3.org/1999/xlink"><g id="tight-bounds" transform="matrix(1,0,0,1,0.2244309689430679,2.170333525972495)"><svg viewBox="0 0 395.52 40.98263448206737" height="40.98263448206737" width="395.52"><g><svg viewBox="0 0 591.909203658875 61.33191378469672" height="40.98263448206737" width="395.52"><g transform="matrix(1,0,0,1,0,8.476407766191805)"><svg viewBox="0 0 395.5199999999999 44.379098252313106" height="44.379098252313106" width="395.5199999999999"><g id="textblocktransform"><svg viewBox="0 0 395.5199999999999 44.379098252313106" height="44.379098252313106" width="395.5199999999999" id="textblock"><g><svg viewBox="0 0 395.5199999999999 44.379098252313106" height="44.379098252313106" width="395.5199999999999"><g transform="matrix(1,0,0,1,0,0)"><svg width="395.5199999999999" viewBox="3.25 -36.55 332.44 37.309999999999995" height="44.379098252313106" data-palette-color="#cadffa"><path d="M17.26-28L10.25-28 10.25-13.99 17.26-13.99Q18.7-13.99 19.97-14.54 21.24-15.09 22.19-16.04 23.14-16.99 23.69-18.27 24.24-19.56 24.24-21L24.24-21Q24.24-22.44 23.69-23.72 23.14-25 22.19-25.95 21.24-26.9 19.97-27.45 18.7-28 17.26-28L17.26-28ZM10.25-7.01L10.25 0 3.25 0 3.25-35.01 17.26-35.01Q19.19-35.01 20.97-34.51 22.75-34.01 24.3-33.09 25.85-32.18 27.14-30.9 28.42-29.61 29.33-28.05 30.25-26.49 30.75-24.71 31.25-22.92 31.25-21L31.25-21Q31.25-18.12 30.15-15.56 29.05-13.01 27.15-11.11 25.24-9.2 22.69-8.11 20.14-7.01 17.26-7.01L17.26-7.01 10.25-7.01ZM57.54-21.46L45.04-6.4Q45.43-6.27 45.82-6.24 46.21-6.2 46.6-6.2L46.6-6.2Q47.58-6.2 48.48-6.47 49.39-6.74 50.18-7.24 50.97-7.74 51.6-8.46 52.22-9.18 52.61-10.06L52.61-10.06 57.49-5.15Q56.56-3.83 55.36-2.78 54.15-1.73 52.74-1 51.34-0.27 49.79 0.11 48.24 0.49 46.6 0.49L46.6 0.49Q43.85 0.49 41.42-0.54 38.99-1.56 37.17-3.39 35.35-5.22 34.3-7.75 33.25-10.28 33.25-13.31L33.25-13.31Q33.25-16.41 34.3-18.97 35.35-21.53 37.17-23.34 38.99-25.15 41.42-26.15 43.85-27.15 46.6-27.15L46.6-27.15Q48.24-27.15 49.8-26.76 51.36-26.37 52.77-25.63 54.17-24.9 55.39-23.84 56.61-22.78 57.54-21.46L57.54-21.46ZM40.7-9.84L48.46-20.14Q48-20.31 47.54-20.36 47.09-20.41 46.6-20.41L46.6-20.41Q45.24-20.41 44.03-19.91 42.82-19.41 41.93-18.48 41.04-17.55 40.52-16.25 40.01-14.94 40.01-13.31L40.01-13.31Q40.01-12.94 40.05-12.48 40.09-12.01 40.17-11.54 40.26-11.06 40.38-10.62 40.5-10.18 40.7-9.84L40.7-9.84ZM67.55-14.94L67.55 0 60.88 0 60.88-26.15 62.5-26.15 64.69-23.61Q66.3-25.07 68.34-25.87 70.38-26.66 72.6-26.66L72.6-26.66Q75-26.66 77.12-25.74 79.24-24.83 80.83-23.23 82.42-21.63 83.33-19.49 84.25-17.36 84.25-14.94L84.25-14.94 84.25 0 77.58 0 77.58-14.94Q77.58-15.97 77.19-16.88 76.8-17.8 76.12-18.48 75.43-19.17 74.53-19.56 73.63-19.95 72.6-19.95L72.6-19.95Q71.55-19.95 70.62-19.56 69.7-19.17 69.01-18.48 68.33-17.8 67.94-16.88 67.55-15.97 67.55-14.94L67.55-14.94ZM95.65-14.94L95.65 0 88.98 0 88.98-26.15 90.59-26.15 92.79-23.61Q94.4-25.07 96.44-25.87 98.48-26.66 100.7-26.66L100.7-26.66Q103.09-26.66 105.22-25.74 107.34-24.83 108.93-23.23 110.51-21.63 111.43-19.49 112.35-17.36 112.35-14.94L112.35-14.94 112.35 0 105.68 0 105.68-14.94Q105.68-15.97 105.29-16.88 104.9-17.8 104.22-18.48 103.53-19.17 102.63-19.56 101.73-19.95 100.7-19.95L100.7-19.95Q99.65-19.95 98.72-19.56 97.8-19.17 97.11-18.48 96.43-17.8 96.04-16.88 95.65-15.97 95.65-14.94L95.65-14.94ZM142.03-9.69L145.74-3.59Q143.3-1.49 140.27-0.37 137.25 0.76 134 0.76L134 0.76Q131.51 0.76 129.2 0.11 126.89-0.54 124.88-1.72 122.87-2.91 121.21-4.57 119.55-6.23 118.36-8.24 117.18-10.25 116.53-12.56 115.88-14.87 115.88-17.36L115.88-17.36Q115.88-19.85 116.53-22.17 117.18-24.49 118.36-26.5 119.55-28.52 121.21-30.18 122.87-31.84 124.88-33.02 126.89-34.2 129.2-34.85 131.51-35.5 134-35.5L134-35.5Q137.25-35.5 140.27-34.39 143.3-33.28 145.74-31.15L145.74-31.15 142.03-25.05Q140.49-26.71 138.39-27.6 136.29-28.49 134-28.49L134-28.49Q131.68-28.49 129.65-27.61 127.63-26.73 126.11-25.23 124.6-23.73 123.72-21.69 122.84-19.65 122.84-17.36L122.84-17.36Q122.84-15.06 123.72-13.05 124.6-11.04 126.11-9.52 127.63-8.01 129.65-7.13 131.68-6.25 134-6.25L134-6.25Q136.29-6.25 138.39-7.14 140.49-8.03 142.03-9.69L142.03-9.69ZM173.45-13.31L173.45-13.31Q173.45-10.38 172.4-7.85 171.35-5.32 169.54-3.48 167.74-1.64 165.31-0.57 162.88 0.49 160.09 0.49L160.09 0.49Q157.34 0.49 154.91-0.57 152.48-1.64 150.66-3.48 148.84-5.32 147.79-7.85 146.74-10.38 146.74-13.31L146.74-13.31Q146.74-16.28 147.79-18.82 148.84-21.36 150.66-23.21 152.48-25.05 154.91-26.1 157.34-27.15 160.09-27.15L160.09-27.15Q162.88-27.15 165.31-26.16 167.74-25.17 169.54-23.35 171.35-21.53 172.4-18.98 173.45-16.43 173.45-13.31ZM166.74-13.31L166.74-13.31Q166.74-14.92 166.21-16.22 165.69-17.53 164.78-18.47 163.88-19.41 162.67-19.91 161.46-20.41 160.09-20.41L160.09-20.41Q158.73-20.41 157.52-19.91 156.31-19.41 155.42-18.47 154.53-17.53 154.02-16.22 153.5-14.92 153.5-13.31L153.5-13.31Q153.5-11.79 154.02-10.5 154.53-9.2 155.42-8.25 156.31-7.3 157.52-6.75 158.73-6.2 160.09-6.2L160.09-6.2Q161.46-6.2 162.67-6.71 163.88-7.23 164.78-8.15 165.69-9.08 166.21-10.4 166.74-11.72 166.74-13.31ZM183.8-14.94L183.8 0 177.13 0 177.13-26.15 178.74-26.15 180.94-23.61Q182.55-25.07 184.59-25.87 186.63-26.66 188.85-26.66L188.85-26.66Q191.24-26.66 193.37-25.74 195.49-24.83 197.08-23.23 198.67-21.63 199.58-19.49 200.5-17.36 200.5-14.94L200.5-14.94 200.5 0 193.83 0 193.83-14.94Q193.83-15.97 193.44-16.88 193.05-17.8 192.37-18.48 191.68-19.17 190.78-19.56 189.88-19.95 188.85-19.95L188.85-19.95Q187.8-19.95 186.87-19.56 185.95-19.17 185.26-18.48 184.58-17.8 184.19-16.88 183.8-15.97 183.8-14.94L183.8-14.94ZM211.9-14.94L211.9 0 205.23 0 205.23-26.15 206.84-26.15 209.04-23.61Q210.65-25.07 212.69-25.87 214.73-26.66 216.95-26.66L216.95-26.66Q219.34-26.66 221.47-25.74 223.59-24.83 225.18-23.23 226.76-21.63 227.68-19.49 228.6-17.36 228.6-14.94L228.6-14.94 228.6 0 221.93 0 221.93-14.94Q221.93-15.97 221.54-16.88 221.15-17.8 220.47-18.48 219.78-19.17 218.88-19.56 217.98-19.95 216.95-19.95L216.95-19.95Q215.9-19.95 214.97-19.56 214.05-19.17 213.36-18.48 212.68-17.8 212.29-16.88 211.9-15.97 211.9-14.94L211.9-14.94ZM256.23-21.46L243.73-6.4Q244.12-6.27 244.51-6.24 244.9-6.2 245.29-6.2L245.29-6.2Q246.27-6.2 247.17-6.47 248.08-6.74 248.87-7.24 249.66-7.74 250.29-8.46 250.91-9.18 251.3-10.06L251.3-10.06 256.18-5.15Q255.25-3.83 254.04-2.78 252.84-1.73 251.43-1 250.03-0.27 248.48 0.11 246.93 0.49 245.29 0.49L245.29 0.49Q242.53 0.49 240.1-0.54 237.68-1.56 235.86-3.39 234.04-5.22 232.99-7.75 231.94-10.28 231.94-13.31L231.94-13.31Q231.94-16.41 232.99-18.97 234.04-21.53 235.86-23.34 237.68-25.15 240.1-26.15 242.53-27.15 245.29-27.15L245.29-27.15Q246.93-27.15 248.49-26.76 250.05-26.37 251.46-25.63 252.86-24.9 254.08-23.84 255.3-22.78 256.23-21.46L256.23-21.46ZM239.38-9.84L247.15-20.14Q246.68-20.31 246.23-20.36 245.78-20.41 245.29-20.41L245.29-20.41Q243.93-20.41 242.72-19.91 241.51-19.41 240.62-18.48 239.73-17.55 239.21-16.25 238.7-14.94 238.7-13.31L238.7-13.31Q238.7-12.94 238.74-12.48 238.77-12.01 238.86-11.54 238.94-11.06 239.07-10.62 239.19-10.18 239.38-9.84L239.38-9.84ZM282.23-20.95L282.23-20.95 277.35-16.04Q276.98-17.07 276.34-17.88 275.71-18.7 274.92-19.26 274.12-19.82 273.2-20.12 272.27-20.41 271.29-20.41L271.29-20.41Q269.92-20.41 268.72-19.85 267.51-19.29 266.62-18.27 265.72-17.26 265.21-15.87 264.7-14.48 264.7-12.79L264.7-12.79Q264.7-11.43 265.21-10.23 265.72-9.03 266.62-8.13 267.51-7.23 268.72-6.71 269.92-6.2 271.29-6.2L271.29-6.2Q272.27-6.2 273.17-6.47 274.07-6.74 274.87-7.24 275.66-7.74 276.28-8.46 276.91-9.18 277.3-10.06L277.3-10.06 282.18-5.15Q281.25-3.83 280.04-2.78 278.83-1.73 277.43-1 276.03-0.27 274.48 0.11 272.93 0.49 271.29 0.49L271.29 0.49Q268.53 0.49 266.1-0.55 263.67-1.59 261.85-3.39 260.04-5.2 258.99-7.62 257.94-10.03 257.94-12.79L257.94-12.79Q257.94-15.8 258.99-18.41 260.04-21.02 261.85-22.96 263.67-24.9 266.1-26.03 268.53-27.15 271.29-27.15L271.29-27.15Q272.93-27.15 274.5-26.73 276.08-26.32 277.5-25.52 278.93-24.73 280.14-23.58 281.35-22.44 282.23-20.95ZM303.64 0L298.58 0Q296.17 0 294.04-0.92 291.92-1.83 290.32-3.43 288.72-5.03 287.8-7.15 286.89-9.28 286.89-11.69L286.89-11.69 286.89-19.46 283.64-19.46 283.64-26.1 286.89-26.1 286.89-36.55 293.53-36.55 293.53-26.1 303.64-26.1 303.64-19.46 293.53-19.46 293.53-11.69Q293.53-10.64 293.92-9.73 294.31-8.81 294.99-8.13 295.68-7.45 296.61-7.04 297.53-6.64 298.58-6.64L298.58-6.64 303.64-6.64 303.64 0ZM335.69-35.01L335.69-13.99Q335.69-11.08 334.59-8.53 333.49-5.98 331.59-4.09 329.68-2.2 327.13-1.1 324.58 0 321.68 0L321.68 0Q318.77 0 316.22-1.1 313.67-2.2 311.78-4.09 309.88-5.98 308.79-8.53 307.69-11.08 307.69-13.99L307.69-13.99 307.69-35.01 314.67-35.01 314.67-13.99Q314.67-12.55 315.22-11.28 315.77-10.01 316.72-9.06 317.67-8.11 318.95-7.56 320.24-7.01 321.68-7.01L321.68-7.01Q323.12-7.01 324.4-7.56 325.68-8.11 326.63-9.06 327.58-10.01 328.13-11.28 328.68-12.55 328.68-13.99L328.68-13.99 328.68-35.01 335.69-35.01Z" opacity="1" transform="matrix(1,0,0,1,0,0)" fill="#cadffa" class="wordmark-text-0" data-fill-palette-color="primary" id="text-0"></path></svg></g></svg></g></svg></g></svg></g><g transform="matrix(1,0,0,1,405.996839999013,0)"><svg viewBox="0 0 185.9123636598619 61.33191378469672" height="61.33191378469672" width="185.9123636598619"><g><svg xmlns="http://www.w3.org/2000/svg" data-name="Layer 1" viewBox="2.25 34 97 32" x="0" y="0" height="61.33191378469672" width="185.9123636598619" class="icon-icon-0" data-fill-palette-color="accent" id="icon-0"><path d="M83.25 66a16 16 0 1 1 16-16A16 16 0 0 1 83.25 66Zm0-25.5a9.5 9.5 0 1 0 9.5 9.5A9.51 9.51 0 0 0 83.25 40.5Z" fill="#f67357" data-fill-palette-color="accent"></path><path d="M18.25 66a16 16 0 1 1 16-16A16 16 0 0 1 18.25 66Zm0-25.5a9.5 9.5 0 1 0 9.5 9.5A9.51 9.51 0 0 0 18.25 40.5Z" fill="#f67357" data-fill-palette-color="accent"></path><rect x="37.75" y="46.75" width="26" height="6.5" fill="#f67357" data-fill-palette-color="accent"></rect></svg></g></svg></g></svg></g><defs></defs></svg><rect width="395.52" height="40.98263448206737" fill="none" stroke="none" visibility="hidden"></rect></g></svg></g></svg>