<svg xmlns="http://www.w3.org/2000/svg" xmlns:xlink="http://www.w3.org/1999/xlink" width="500" zoomAndPan="magnify" viewBox="0 0 375 374.999991" height="500" preserveAspectRatio="xMidYMid meet" version="1.0"><defs><g/><clipPath id="39b82e136f"><path d="M 4.671875 121.402344 L 79.636719 121.402344 L 79.636719 210.421875 L 4.671875 210.421875 Z M 4.671875 121.402344 " clip-rule="nonzero"/></clipPath><clipPath id="e69635809d"><path d="M 79.636719 179.421875 L 79.636719 152.296875 C 79.636719 135.234375 66.125 121.402344 51 121.402344 C 40.226562 121.402344 29.820312 128.652344 24.992188 139.128906 L 4.671875 139.128906 L 22.117188 160.109375 L 22.117188 179.421875 C 22.117188 196.484375 35.628906 210.316406 51 210.316406 C 66.125 210.316406 79.636719 196.484375 79.636719 179.421875 Z M 79.636719 179.421875 " clip-rule="nonzero"/></clipPath><clipPath id="ef4685e5c2"><path d="M 60 182 L 94 182 L 94 201 L 60 201 Z M 60 182 " clip-rule="nonzero"/></clipPath><clipPath id="e8156399b7"><path d="M 95.042969 187.933594 L 62.484375 203.375 L 58.617188 195.21875 L 91.171875 179.777344 Z M 95.042969 187.933594 " clip-rule="nonzero"/></clipPath><clipPath id="984a67e768"><path d="M 76.421875 196.765625 C 68.734375 200.410156 61.632812 201.542969 60.566406 199.289062 C 59.496094 197.039062 64.863281 192.257812 72.554688 188.609375 L 77.25 186.382812 C 84.941406 182.734375 92.039062 181.601562 93.109375 183.855469 C 94.175781 186.105469 88.808594 190.890625 81.121094 194.535156 Z M 76.421875 196.765625 " clip-rule="nonzero"/></clipPath><clipPath id="d2aceec231"><path d="M 59 178 L 86 178 L 86 200 L 59 200 Z M 59 178 " clip-rule="nonzero"/></clipPath><clipPath id="8dbadd9d8c"><path d="M 87.789062 183.929688 L 63.132812 202.433594 L 56.765625 193.949219 L 81.421875 175.445312 Z M 87.789062 183.929688 " clip-rule="nonzero"/></clipPath><clipPath id="872ecfe370"><path d="M 75.464844 193.179688 C 68.660156 198.285156 61.714844 200.527344 59.957031 198.1875 C 58.199219 195.84375 62.292969 189.804688 69.097656 184.695312 C 75.90625 179.585938 82.847656 177.34375 84.605469 179.6875 C 86.363281 182.03125 82.273438 188.070312 75.464844 193.179688 Z M 75.464844 193.179688 " clip-rule="nonzero"/></clipPath><clipPath id="cf1c363a7e"><path d="M 62 189 L 101 189 L 101 203 L 62 203 Z M 62 189 " clip-rule="nonzero"/></clipPath><clipPath id="1c25bf682b"><path d="M 101.183594 197.800781 L 63.175781 204.296875 L 61.410156 193.96875 L 99.417969 187.472656 Z M 101.183594 197.800781 " clip-rule="nonzero"/></clipPath><clipPath id="145a739981"><path d="M 79.628906 201.484375 C 70.546875 203.039062 62.789062 201.984375 62.300781 199.132812 C 61.8125 196.28125 68.78125 192.710938 77.863281 191.15625 L 82.972656 190.285156 C 92.054688 188.730469 99.8125 189.785156 100.300781 192.636719 C 100.789062 195.488281 93.820312 199.058594 84.738281 200.613281 Z M 79.628906 201.484375 " clip-rule="nonzero"/></clipPath><clipPath id="4662a11c35"><path d="M 39.738281 130.308594 L 49.4375 130.308594 L 49.4375 140.007812 L 39.738281 140.007812 Z M 39.738281 130.308594 " clip-rule="nonzero"/></clipPath><clipPath id="862ebe55f0"><path d="M 44.589844 130.308594 C 41.910156 130.308594 39.738281 132.480469 39.738281 135.160156 C 39.738281 137.835938 41.910156 140.007812 44.589844 140.007812 C 47.265625 140.007812 49.4375 137.835938 49.4375 135.160156 C 49.4375 132.480469 47.265625 130.308594 44.589844 130.308594 Z M 44.589844 130.308594 " clip-rule="nonzero"/></clipPath><clipPath id="d219a52a2a"><path d="M 26.203125 162.722656 L 41.058594 162.722656 L 41.058594 190.871094 L 26.203125 190.871094 Z M 26.203125 162.722656 " clip-rule="nonzero"/></clipPath><clipPath id="cd1b589c20"><path d="M 33.632812 162.722656 C 37.734375 162.722656 41.058594 166.050781 41.058594 170.152344 L 41.058594 183.398438 C 41.058594 187.5 37.734375 190.828125 33.632812 190.828125 C 29.527344 190.828125 26.203125 187.5 26.203125 183.398438 L 26.203125 170.152344 C 26.203125 166.050781 29.527344 162.722656 33.632812 162.722656 Z M 33.632812 162.722656 " clip-rule="nonzero"/></clipPath><clipPath id="2a9d337cfc"><path d="M 50 150 L 76 150 L 76 200 L 50 200 Z M 50 150 " clip-rule="nonzero"/></clipPath><clipPath id="83f0c8b591"><path d="M 46.683594 152.144531 L 70.40625 148.144531 L 78.746094 197.632812 L 55.019531 201.628906 Z M 46.683594 152.144531 " clip-rule="nonzero"/></clipPath><clipPath id="258c43fdf3"><path d="M 58.542969 150.144531 C 51.992188 151.25 48.546875 163.203125 50.84375 176.847656 C 53.144531 190.492188 60.316406 200.65625 66.871094 199.554688 C 73.421875 198.449219 76.867188 186.496094 74.570312 172.851562 C 72.269531 159.207031 65.097656 149.039062 58.542969 150.144531 Z M 58.542969 150.144531 " clip-rule="nonzero"/></clipPath><clipPath id="42ab4106b3"><path d="M 55 161 L 84 161 L 84 192 L 55 192 Z M 55 161 " clip-rule="nonzero"/></clipPath><clipPath id="72c8e31b41"><path d="M 50.726562 169.117188 L 65.09375 156.53125 L 88.890625 183.695312 L 74.519531 196.28125 Z M 50.726562 169.117188 " clip-rule="nonzero"/></clipPath><clipPath id="9ca203f851"><path d="M 57.910156 162.824219 C 53.941406 166.300781 56.050781 175.195312 62.621094 182.695312 C 69.1875 190.195312 77.730469 193.457031 81.699219 189.980469 C 85.664062 186.503906 83.558594 177.609375 76.988281 170.109375 C 70.417969 162.609375 61.878906 159.347656 57.910156 162.824219 Z M 57.910156 162.824219 " clip-rule="nonzero"/></clipPath><clipPath id="6a75ffce66"><path d="M 55 149 L 83 149 L 83 176 L 55 176 Z M 55 149 " clip-rule="nonzero"/></clipPath><clipPath id="baa5b0855c"><path d="M 51.71875 156.226562 L 61.859375 145.480469 L 87.003906 169.210938 L 76.859375 179.957031 Z M 51.71875 156.226562 " clip-rule="nonzero"/></clipPath><clipPath id="804bc0c150"><path d="M 56.789062 150.855469 C 53.988281 153.820312 57.347656 161.539062 64.289062 168.089844 C 71.230469 174.644531 79.128906 177.550781 81.929688 174.582031 C 84.730469 171.617188 81.371094 163.898438 74.429688 157.347656 C 67.488281 150.792969 59.589844 147.886719 56.789062 150.855469 Z M 56.789062 150.855469 " clip-rule="nonzero"/></clipPath></defs><g clip-path="url(#39b82e136f)"><g clip-path="url(#e69635809d)"><path fill="#f00b51" d="M 79.636719 121.402344 L 79.636719 210.421875 L 4.671875 210.421875 L 4.671875 121.402344 Z M 79.636719 121.402344 " fill-opacity="1" fill-rule="nonzero"/></g></g><g clip-path="url(#ef4685e5c2)"><g clip-path="url(#e8156399b7)"><g clip-path="url(#984a67e768)"><path fill="#f00b51" d="M 95.042969 187.933594 L 62.484375 203.375 L 58.617188 195.21875 L 91.171875 179.777344 Z M 95.042969 187.933594 " fill-opacity="1" fill-rule="nonzero"/></g></g></g><g clip-path="url(#d2aceec231)"><g clip-path="url(#8dbadd9d8c)"><g clip-path="url(#872ecfe370)"><path fill="#f00b51" d="M 87.789062 183.929688 L 63.132812 202.433594 L 56.765625 193.949219 L 81.421875 175.445312 Z M 87.789062 183.929688 " fill-opacity="1" fill-rule="nonzero"/></g></g></g><g clip-path="url(#cf1c363a7e)"><g clip-path="url(#1c25bf682b)"><g clip-path="url(#145a739981)"><path fill="#f00b51" d="M 101.183594 197.800781 L 63.175781 204.296875 L 61.410156 193.96875 L 99.417969 187.472656 Z M 101.183594 197.800781 " fill-opacity="1" fill-rule="nonzero"/></g></g></g><g clip-path="url(#4662a11c35)"><g clip-path="url(#862ebe55f0)"><path fill="#ffffff" d="M 39.738281 130.308594 L 49.4375 130.308594 L 49.4375 140.007812 L 39.738281 140.007812 Z M 39.738281 130.308594 " fill-opacity="1" fill-rule="nonzero"/></g></g><g clip-path="url(#d219a52a2a)"><g clip-path="url(#cd1b589c20)"><path fill="#d60f4b" d="M 26.203125 162.722656 L 41.058594 162.722656 L 41.058594 190.8125 L 26.203125 190.8125 Z M 26.203125 162.722656 " fill-opacity="1" fill-rule="nonzero"/></g></g><g clip-path="url(#2a9d337cfc)"><g clip-path="url(#83f0c8b591)"><g clip-path="url(#258c43fdf3)"><path fill="#c60b44" d="M 46.683594 152.144531 L 70.40625 148.144531 L 78.730469 197.539062 L 55.003906 201.539062 Z M 46.683594 152.144531 " fill-opacity="1" fill-rule="nonzero"/></g></g></g><g clip-path="url(#42ab4106b3)"><g clip-path="url(#72c8e31b41)"><g clip-path="url(#9ca203f851)"><path fill="#c60b44" d="M 50.726562 169.117188 L 65.09375 156.53125 L 88.890625 183.695312 L 74.519531 196.28125 Z M 50.726562 169.117188 " fill-opacity="1" fill-rule="nonzero"/></g></g></g><g clip-path="url(#6a75ffce66)"><g clip-path="url(#baa5b0855c)"><g clip-path="url(#804bc0c150)"><path fill="#c60b44" d="M 51.71875 156.226562 L 61.859375 145.480469 L 87.003906 169.210938 L 76.859375 179.957031 Z M 51.71875 156.226562 " fill-opacity="1" fill-rule="nonzero"/></g></g></g><g fill="#f00b51" fill-opacity="1"><g transform="translate(119.84094, 185.961876)"><g><path d="M 47.855469 -25.289062 C 45.046875 -18.089844 39.953125 -13.433594 33.894531 -11.238281 L 34.683594 -13.082031 C 37.144531 -19.757812 39.6875 -27.042969 42.148438 -33.804688 C 42.675781 -35.296875 42.9375 -36.792969 42.9375 -38.371094 C 42.9375 -45.484375 37.054688 -51.542969 30.207031 -51.542969 C 27.835938 -51.542969 25.023438 -51.105469 23.09375 -49.523438 C 23.269531 -51.632812 20.371094 -53.300781 17.210938 -53.300781 C 14.3125 -53.300781 11.503906 -51.71875 10.1875 -48.03125 L -11.679688 13.785156 C -12.117188 14.925781 -12.292969 15.894531 -12.292969 16.769531 C -12.292969 20.371094 -9.308594 22.214844 -6.148438 22.214844 C -3.25 22.214844 -0.351562 20.808594 0.703125 17.5625 L 7.726562 -3.25 C 10.449219 -1.140625 15.71875 0 23.003906 0 C 40.039062 0 52.773438 -6.761719 58.566406 -23.355469 C 58.832031 -24.148438 59.007812 -24.847656 59.007812 -25.464844 C 59.007812 -28.363281 56.546875 -30.117188 53.914062 -30.117188 C 51.542969 -30.117188 48.910156 -28.625 47.855469 -25.289062 Z M 12.382812 -16.15625 L 19.40625 -36.527344 C 20.460938 -39.6875 22.742188 -41.183594 25.199219 -41.183594 C 27.308594 -41.183594 29.238281 -39.6875 29.238281 -37.492188 C 29.238281 -36.703125 29.0625 -35.914062 28.800781 -35.035156 C 26.605469 -28.097656 24.148438 -21.601562 21.777344 -14.75 C 20.808594 -12.117188 18.441406 -10.535156 16.070312 -10.449219 C 13.785156 -10.449219 12.03125 -11.679688 12.03125 -14.136719 C 12.03125 -14.75 12.117188 -15.453125 12.382812 -16.15625 Z M 12.382812 -16.15625 "/></g></g></g><g fill="#f00b51" fill-opacity="1"><g transform="translate(164.796206, 185.961876)"><g><path d="M 23.621094 -59.621094 C 27.570312 -59.621094 30.820312 -62.871094 30.820312 -66.910156 C 30.820312 -70.859375 27.570312 -74.023438 23.621094 -74.023438 C 19.667969 -74.023438 16.421875 -70.859375 16.421875 -66.910156 C 16.421875 -62.871094 19.667969 -59.621094 23.621094 -59.621094 Z M 11.765625 -14.839844 L 21.425781 -42.410156 C 21.777344 -43.550781 22.214844 -44.78125 22.214844 -45.660156 C 22.214844 -49.523438 19.316406 -51.542969 16.332031 -51.542969 C 13.609375 -51.542969 10.710938 -49.613281 9.308594 -45.484375 C 6.496094 -37.230469 2.808594 -26.78125 0 -18.613281 C -0.527344 -16.859375 -1.230469 -14.488281 -1.230469 -12.996094 C -1.230469 -4.742188 5.621094 0 13.699219 0 C 22.304688 0 31.785156 -5.269531 37.933594 -23.445312 C 38.109375 -23.972656 38.195312 -24.5 38.195312 -25.023438 C 38.195312 -27.746094 35.5625 -29.414062 32.929688 -29.414062 C 30.558594 -29.414062 28.1875 -28.1875 27.132812 -25.464844 C 23.003906 -14.050781 18.351562 -10.449219 14.839844 -10.449219 C 12.820312 -10.449219 11.503906 -11.765625 11.503906 -13.433594 C 11.503906 -13.875 11.589844 -14.3125 11.765625 -14.839844 Z M 11.765625 -14.839844 "/></g></g></g><g fill="#f00b51" fill-opacity="1"><g transform="translate(189.029907, 185.961876)"><g><path d="M 55.84375 -29.503906 C 53.476562 -29.503906 51.015625 -28.273438 50.226562 -25.464844 C 46.273438 -14.925781 41.53125 -10.449219 37.582031 -10.449219 C 35.824219 -10.449219 34.859375 -11.679688 34.859375 -13.082031 C 34.859375 -13.609375 34.949219 -14.136719 35.296875 -15.191406 L 53.210938 -66.910156 C 53.5625 -67.964844 54 -69.457031 54 -70.421875 C 54 -74.199219 50.929688 -76.21875 47.855469 -76.21875 C 45.132812 -76.21875 42.585938 -74.199219 41.007812 -69.632812 L 33.015625 -46.976562 C 30.382812 -49.875 26.519531 -51.542969 22.390625 -51.542969 C 16.683594 -51.542969 10.535156 -48.382812 8.167969 -41.707031 L -0.175781 -18 C -0.789062 -16.332031 -1.054688 -14.574219 -1.054688 -12.996094 C -1.054688 -5.269531 5.179688 0 12.730469 0 C 16.859375 0 21.425781 -1.40625 24.9375 -4.828125 C 27.660156 -1.84375 31.875 0 36.265625 0 C 44.957031 0 54.96875 -6.234375 60.851562 -23.445312 C 61.027344 -24.058594 61.203125 -24.675781 61.203125 -25.199219 C 61.203125 -27.921875 58.566406 -29.503906 55.84375 -29.503906 Z M 14.664062 -13.523438 C 12.996094 -13.960938 12.554688 -15.277344 12.554688 -16.683594 C 12.554688 -17.824219 12.820312 -18.878906 13.082031 -19.667969 L 18.089844 -34.332031 C 19.84375 -39.511719 22.214844 -40.390625 23.621094 -40.390625 C 25.289062 -40.390625 27.132812 -38.722656 27.132812 -35.738281 C 27.132812 -34.421875 26.871094 -32.753906 26.078125 -30.558594 L 22.480469 -20.460938 C 19.84375 -13.960938 16.332031 -13.171875 14.664062 -13.523438 Z M 14.664062 -13.523438 "/></g></g></g><g fill="#f00b51" fill-opacity="1"><g transform="translate(236.180248, 185.961876)"><g><path d="M 33.628906 -7.640625 L 45.746094 -41.621094 C 46.363281 -43.464844 46.625 -44.957031 46.625 -46.097656 C 46.625 -50.050781 43.902344 -50.839844 42.761719 -51.28125 C 42.234375 -51.457031 41.621094 -51.542969 41.007812 -51.542969 C 38.371094 -51.542969 35.648438 -50.226562 34.597656 -47.152344 C 31.609375 -50.3125 28.273438 -51.542969 23.621094 -51.542969 C 17.121094 -51.542969 10.273438 -47.855469 7.375 -39.6875 L -0.0859375 -18.441406 C -0.703125 -16.59375 -1.054688 -14.664062 -1.054688 -12.90625 C -1.054688 -5.972656 3.777344 -1.316406 9.746094 0 C 1.582031 1.582031 -8.867188 4.742188 -11.503906 13.433594 C -11.941406 14.925781 -12.117188 16.246094 -12.117188 17.5625 C -12.117188 26.078125 -4.214844 31.699219 4.390625 31.699219 C 13.082031 31.699219 21.25 27.042969 24.847656 16.859375 L 28.890625 5.707031 C 41.445312 1.757812 54.351562 -5.09375 60.410156 -23.53125 C 60.675781 -24.234375 60.761719 -24.9375 60.761719 -25.550781 C 60.761719 -28.539062 58.480469 -30.292969 55.84375 -30.292969 C 53.476562 -30.292969 50.929688 -28.800781 49.699219 -25.375 C 46.449219 -16.421875 40.566406 -11.152344 33.628906 -7.640625 Z M 29.855469 -34.773438 L 23.179688 -16.246094 C 21.425781 -12.90625 18.441406 -10.449219 15.453125 -10.449219 C 13.347656 -10.449219 11.765625 -11.503906 11.765625 -13.433594 C 11.765625 -13.875 11.941406 -14.574219 12.117188 -15.191406 L 20.019531 -37.492188 C 20.898438 -39.953125 22.917969 -41.183594 24.847656 -41.183594 C 27.570312 -41.183594 29.941406 -39.164062 29.941406 -36 C 29.941406 -35.648438 29.941406 -35.210938 29.855469 -34.773438 Z M 12.820312 9.746094 L 10.710938 15.71875 C 9.484375 18.964844 6.761719 20.636719 4.128906 20.636719 C 2.105469 20.636719 1.140625 19.40625 1.140625 17.824219 C 1.140625 17.296875 1.316406 16.59375 1.582031 15.980469 C 2.808594 12.90625 7.113281 11.238281 12.820312 9.746094 Z M 12.820312 9.746094 "/></g></g></g><g fill="#f00b51" fill-opacity="1"><g transform="translate(283.067191, 185.961876)"><g><path d="M 23.621094 -59.621094 C 27.570312 -59.621094 30.820312 -62.871094 30.820312 -66.910156 C 30.820312 -70.859375 27.570312 -74.023438 23.621094 -74.023438 C 19.667969 -74.023438 16.421875 -70.859375 16.421875 -66.910156 C 16.421875 -62.871094 19.667969 -59.621094 23.621094 -59.621094 Z M 11.765625 -14.839844 L 21.425781 -42.410156 C 21.777344 -43.550781 22.214844 -44.78125 22.214844 -45.660156 C 22.214844 -49.523438 19.316406 -51.542969 16.332031 -51.542969 C 13.609375 -51.542969 10.710938 -49.613281 9.308594 -45.484375 C 6.496094 -37.230469 2.808594 -26.78125 0 -18.613281 C -0.527344 -16.859375 -1.230469 -14.488281 -1.230469 -12.996094 C -1.230469 -4.742188 5.621094 0 13.699219 0 C 22.304688 0 31.785156 -5.269531 37.933594 -23.445312 C 38.109375 -23.972656 38.195312 -24.5 38.195312 -25.023438 C 38.195312 -27.746094 35.5625 -29.414062 32.929688 -29.414062 C 30.558594 -29.414062 28.1875 -28.1875 27.132812 -25.464844 C 23.003906 -14.050781 18.351562 -10.449219 14.839844 -10.449219 C 12.820312 -10.449219 11.503906 -11.765625 11.503906 -13.433594 C 11.503906 -13.875 11.589844 -14.3125 11.765625 -14.839844 Z M 11.765625 -14.839844 "/></g></g></g><g fill="#f00b51" fill-opacity="1"><g transform="translate(307.300892, 185.961876)"><g><path d="M 48.996094 -25.289062 C 45.132812 -14.75 40.304688 -10.449219 36.175781 -10.449219 C 34.597656 -10.449219 33.71875 -11.238281 33.71875 -12.730469 C 33.71875 -13.347656 33.894531 -14.050781 34.15625 -14.925781 L 41.007812 -34.421875 C 41.621094 -36.175781 41.972656 -37.757812 41.972656 -39.25 C 41.972656 -46.273438 36 -51.542969 28.976562 -51.542969 C 25.550781 -51.542969 22.828125 -50.753906 20.546875 -49.085938 C 20.019531 -50.664062 17.824219 -51.542969 15.453125 -51.542969 C 12.996094 -51.542969 10.625 -50.402344 9.746094 -47.941406 L -4.917969 -6.9375 C -5.179688 -6.148438 -5.269531 -5.445312 -5.269531 -4.742188 C -5.269531 -1.492188 -2.722656 0.175781 0.0859375 0.175781 C 3.160156 0.175781 6.671875 -1.757812 7.992188 -5.707031 C 11.0625 -14.226562 15.277344 -26.253906 18.265625 -34.683594 C 20.636719 -39.074219 23.707031 -41.183594 26.167969 -41.183594 C 27.746094 -41.183594 28.890625 -40.128906 28.890625 -38.460938 C 28.890625 -37.84375 28.714844 -37.054688 28.449219 -36.265625 L 22.039062 -18.175781 C 21.335938 -16.15625 20.898438 -14.226562 20.898438 -12.382812 C 20.898438 -4.300781 27.570312 0 35.035156 0 C 43.992188 0 53.5625 -6.058594 59.621094 -23.179688 C 59.886719 -23.882812 60.058594 -24.585938 60.058594 -25.199219 C 60.058594 -28.011719 57.515625 -29.503906 54.878906 -29.503906 C 52.507812 -29.503906 49.875 -28.1875 48.996094 -25.289062 Z M 48.996094 -25.289062 "/></g></g></g></svg>