<svg version="1.1" id="Layer_1" xmlns="http://www.w3.org/2000/svg" xmlns:xlink="http://www.w3.org/1999/xlink" x="0px" y="0px"
	 width="100%" viewBox="0 0 500 500" enable-background="new 0 0 500 500" xml:space="preserve">
<path fill="#000000" opacity="1.000000" stroke="none" 
	d="
M341.000000,501.000000 
	C227.333359,501.000000 114.166718,501.000000 1.000061,501.000000 
	C1.000041,334.333405 1.000041,167.666794 1.000020,1.000150 
	C167.666565,1.000100 334.333130,1.000100 500.999756,1.000050 
	C500.999847,167.666519 500.999847,334.333038 500.999939,500.999786 
	C447.833344,501.000000 394.666656,501.000000 341.000000,501.000000 
M360.970764,240.018799 
	C360.647644,223.257446 360.196350,206.497269 360.045105,189.734360 
	C359.939117,177.986755 357.663635,166.669952 354.201141,155.530609 
	C346.039734,129.274124 331.284698,107.583603 309.366577,90.859093 
	C289.685669,75.841652 267.395660,67.447838 242.737564,67.308922 
	C231.630066,67.246346 219.989090,69.001381 209.481598,72.562225 
	C176.714523,83.666519 152.458710,105.313164 136.551590,136.079865 
	C134.943100,139.190903 133.173401,140.094421 129.830338,140.075333 
	C105.340736,139.935577 80.849976,139.995331 56.359592,140.009872 
	C54.629429,140.010895 52.899349,140.153152 50.056126,140.279022 
	C60.315029,152.731476 69.819336,164.375122 79.441452,175.920578 
	C91.639877,190.557312 104.126205,204.960571 116.022919,219.836761 
	C118.371201,222.773132 122.154053,224.874969 122.154854,230.014175 
	C122.159119,257.438599 122.825401,284.862335 122.928795,312.287598 
	C122.976341,324.899231 125.048759,337.174438 129.180817,348.899658 
	C137.962738,373.819519 152.124542,395.116150 173.599930,411.140991 
	C198.601364,429.796906 226.481216,438.386566 257.490692,433.796936 
	C279.575836,430.528198 299.102692,420.929199 315.788757,405.820435 
	C317.997101,403.820831 320.893616,401.242126 323.485291,401.226440 
	C338.192261,401.137421 352.663727,399.637390 367.171722,397.160950 
	C384.387390,394.222351 401.554413,391.367371 417.886902,384.938690 
	C426.906494,381.388428 435.730347,377.435699 442.445465,370.057831 
	C447.324951,364.696716 447.238647,358.407166 441.580505,355.430298 
	C436.906219,352.970978 431.695526,351.093140 426.506012,350.153748 
	C418.720398,348.744385 410.745331,348.381653 403.581787,347.648651 
	C407.351288,342.977203 411.532379,338.350281 415.061737,333.270538 
	C418.813904,327.870178 417.052429,322.655151 410.700928,321.197357 
	C406.011444,320.121033 400.928009,320.209290 396.074799,320.552338 
	C391.142731,320.900940 386.277710,322.197632 382.060272,322.957245 
	C382.060272,318.379181 382.687378,314.179260 381.902161,310.262512 
	C380.912018,305.323700 376.521637,304.175751 371.726501,303.244781 
	C369.731384,298.960236 367.736267,294.675659 365.724884,290.356201 
	C372.814270,286.206390 375.596161,278.152374 373.524292,268.899048 
	C371.228943,258.647522 366.497742,249.609818 360.970764,240.018799 
z"/>
<path fill="#F00B51" opacity="1.000000" stroke="none" 
	d="
M372.020081,303.891998 
	C376.521637,304.175751 380.912018,305.323700 381.902161,310.262512 
	C382.687378,314.179260 382.060272,318.379181 382.060272,322.957245 
	C386.277710,322.197632 391.142731,320.900940 396.074799,320.552338 
	C400.928009,320.209290 406.011444,320.121033 410.700928,321.197357 
	C417.052429,322.655151 418.813904,327.870178 415.061737,333.270538 
	C411.532379,338.350281 407.351288,342.977203 403.581787,347.648651 
	C410.745331,348.381653 418.720398,348.744385 426.506012,350.153748 
	C431.695526,351.093140 436.906219,352.970978 441.580505,355.430298 
	C447.238647,358.407166 447.324951,364.696716 442.445465,370.057831 
	C435.730347,377.435699 426.906494,381.388428 417.886902,384.938690 
	C401.554413,391.367371 384.387390,394.222351 367.171722,397.160950 
	C352.663727,399.637390 338.192261,401.137421 323.485291,401.226440 
	C320.893616,401.242126 317.997101,403.820831 315.788757,405.820435 
	C299.102692,420.929199 279.575836,430.528198 257.490692,433.796936 
	C226.481216,438.386566 198.601364,429.796906 173.599930,411.140991 
	C152.124542,395.116150 137.962738,373.819519 129.180817,348.899658 
	C125.048759,337.174438 122.976341,324.899231 122.928795,312.287598 
	C122.825401,284.862335 122.159119,257.438599 122.154854,230.014175 
	C122.154053,224.874969 118.371201,222.773132 116.022919,219.836761 
	C104.126205,204.960571 91.639877,190.557312 79.441452,175.920578 
	C69.819336,164.375122 60.315029,152.731476 50.056126,140.279022 
	C52.899349,140.153152 54.629429,140.010895 56.359592,140.009872 
	C80.849976,139.995331 105.340736,139.935577 129.830338,140.075333 
	C133.173401,140.094421 134.943100,139.190903 136.551590,136.079865 
	C152.458710,105.313164 176.714523,83.666519 209.481598,72.562225 
	C219.989090,69.001381 231.630066,67.246346 242.737564,67.308922 
	C267.395660,67.447838 289.685669,75.841652 309.366577,90.859093 
	C331.284698,107.583603 346.039734,129.274124 354.201141,155.530609 
	C357.663635,166.669952 359.939117,177.986755 360.045105,189.734360 
	C360.196350,206.497269 360.647644,223.257446 360.632751,240.301605 
	C357.182159,236.698593 354.215240,232.684753 350.931976,228.948898 
	C335.940308,211.890518 319.028290,197.283447 297.753448,188.512833 
	C284.500488,183.049255 271.635742,182.136093 260.032227,192.650085 
	C250.739136,201.070618 246.111450,212.096069 243.124252,223.798126 
	C236.624359,249.260788 237.738144,274.895691 242.362793,300.520142 
	C246.547424,323.706543 254.037720,345.637115 267.506256,365.179321 
	C273.985352,374.580200 281.587372,382.898712 292.340118,387.694153 
	C302.476685,392.214813 312.921783,390.287476 320.884399,382.758087 
	C327.341980,376.651886 331.822083,369.368683 334.741547,361.106476 
	C337.754089,352.580933 336.799042,354.191498 344.854156,355.461761 
	C354.678497,357.011017 363.852295,356.184784 370.758301,347.785431 
	C376.692841,340.567719 377.951508,332.147766 376.474274,323.311798 
	C375.381104,316.773071 373.532288,310.360687 372.020081,303.891998 
M164.657837,238.000122 
	C150.361588,237.050201 139.282516,249.080826 139.780289,262.954407 
	C140.592087,285.581055 139.980087,308.258179 140.007675,330.913940 
	C140.023270,343.703705 149.845840,353.745361 162.581329,353.977661 
	C168.076813,354.077881 173.580048,354.129852 179.072159,353.959229 
	C190.351608,353.608826 200.849075,343.279114 200.934723,331.999329 
	C201.116821,308.012238 201.219833,284.019409 200.866882,260.036163 
	C200.741974,251.549362 196.494034,244.901901 188.658646,240.780106 
	C181.277786,236.897430 173.371658,238.291321 164.657837,238.000122 
M223.688675,142.521530 
	C233.718079,137.168533 237.874359,127.293671 234.222473,117.494461 
	C230.594360,107.759048 220.859146,102.776573 210.388901,105.296478 
	C199.834671,107.836601 193.512115,118.919853 196.447098,129.736099 
	C199.513397,141.036331 210.929703,146.685394 223.688675,142.521530 
z"/>
<path fill="#C60B44" opacity="1.000000" stroke="none" 
	d="
M371.873291,303.568390 
	C373.532288,310.360687 375.381104,316.773071 376.474274,323.311798 
	C377.951508,332.147766 376.692841,340.567719 370.758301,347.785431 
	C363.852295,356.184784 354.678497,357.011017 344.854156,355.461761 
	C336.799042,354.191498 337.754089,352.580933 334.741547,361.106476 
	C331.822083,369.368683 327.341980,376.651886 320.884399,382.758087 
	C312.921783,390.287476 302.476685,392.214813 292.340118,387.694153 
	C281.587372,382.898712 273.985352,374.580200 267.506256,365.179321 
	C254.037720,345.637115 246.547424,323.706543 242.362793,300.520142 
	C237.738144,274.895691 236.624359,249.260788 243.124252,223.798126 
	C246.111450,212.096069 250.739136,201.070618 260.032227,192.650085 
	C271.635742,182.136093 284.500488,183.049255 297.753448,188.512833 
	C319.028290,197.283447 335.940308,211.890518 350.931976,228.948898 
	C354.215240,232.684753 357.182159,236.698593 360.567017,240.762390 
	C366.497742,249.609818 371.228943,258.647522 373.524292,268.899048 
	C375.596161,278.152374 372.814270,286.206390 365.724884,290.356201 
	C367.736267,294.675659 369.731384,298.960236 371.873291,303.568390 
z"/>
<path fill="#D60F4B" opacity="1.000000" stroke="none" 
	d="
M165.138321,238.000061 
	C173.371658,238.291321 181.277786,236.897430 188.658646,240.780106 
	C196.494034,244.901901 200.741974,251.549362 200.866882,260.036163 
	C201.219833,284.019409 201.116821,308.012238 200.934723,331.999329 
	C200.849075,343.279114 190.351608,353.608826 179.072159,353.959229 
	C173.580048,354.129852 168.076813,354.077881 162.581329,353.977661 
	C149.845840,353.745361 140.023270,343.703705 140.007675,330.913940 
	C139.980087,308.258179 140.592087,285.581055 139.780289,262.954407 
	C139.282516,249.080826 150.361588,237.050201 165.138321,238.000061 
z"/>
<path fill="#FFFDFD" opacity="1.000000" stroke="none" 
	d="
M223.328659,142.690552 
	C210.929703,146.685394 199.513397,141.036331 196.447098,129.736099 
	C193.512115,118.919853 199.834671,107.836601 210.388901,105.296478 
	C220.859146,102.776573 230.594360,107.759048 234.222473,117.494461 
	C237.874359,127.293671 233.718079,137.168533 223.328659,142.690552 
z"/>
</svg>