<svg xmlns="http://www.w3.org/2000/svg" version="1.1" xmlns:xlink="http://www.w3.org/1999/xlink" xmlns:svgjs="http://svgjs.dev/svgjs" width="128" height="32" viewBox="0 0 2000 464"><g transform="matrix(1,0,0,1,-1.2121212121212466,1.0951552795030466)"><svg viewBox="0 0 396 92" data-background-color="#ffffff" preserveAspectRatio="xMidYMid meet" height="464" width="2000" xmlns="http://www.w3.org/2000/svg" xmlns:xlink="http://www.w3.org/1999/xlink"><g id="tight-bounds" transform="matrix(1,0,0,1,0.2400000000000091,-0.21714285714284642)"><svg viewBox="0 0 395.52 92.43428571428572" height="92.43428571428572" width="395.52"><g><svg viewBox="0 0 395.52 92.43428571428572" height="92.43428571428572" width="395.52"><g><svg viewBox="0 0 395.52 92.43428571428572" height="92.43428571428572" width="395.52"><g id="textblocktransform"><svg viewBox="0 0 395.52 92.43428571428572" height="92.43428571428572" width="395.52" id="textblock"><g><svg viewBox="0 0 395.52 92.43428571428572" height="92.43428571428572" width="395.52"><g transform="matrix(1,0,0,1,0,0)"><svg width="395.52" viewBox="2.4 -33.2 144.19 33.7" height="92.43428571428572" data-palette-color="#000000"><path d="M11.05-30.2L2.4-30.2 2.4-32.75 22.5-32.75 22.5-30.2 13.8-30.2 13.8 0 11.05 0 11.05-30.2ZM28.35-11.85Q28.35-17.6 30.72-20.83 33.1-24.05 37.65-24.05 42.2-24.05 44.42-21.05 46.65-18.05 46.65-13.05L46.65-13.05 46.5-10.55 31.2-10.55Q31.45-6.8 33.2-4.48 34.95-2.15 38.02-2.15 41.1-2.15 45.25-3.6L45.25-3.6 46-1.1Q41.95 0.45 38.4 0.45L38.4 0.45Q33.5 0.45 30.92-2.83 28.35-6.1 28.35-11.85ZM37.85-21.5L37.85-21.5Q31.55-21.5 31.2-13.05L31.2-13.05 43.8-13.05Q43.8-21.5 37.85-21.5ZM58-9.1L58-20.9 53.8-20.9 53.8-23.4 58-23.4 58-29.15 60.65-29.65 60.65-23.4 70.15-23.4 70.15-20.9 60.65-20.9 60.65-9.2Q60.65-5.3 61.42-3.7 62.2-2.1 64.59-2.1 67-2.1 69.9-3.05L69.9-3.05 70.5-0.55Q67.59 0.5 65.09 0.5 62.6 0.5 61.17-0.15 59.75-0.8 59.07-2.23 58.4-3.65 58.2-5.15 58-6.65 58-9.1L58-9.1ZM81.54-19.4L81.54-19.4 81.54 0 78.89 0 78.89-33.2 81.54-33.2 81.54-21.95Q86.24-24.05 89.29-24.05L89.29-24.05Q96.44-24.05 96.44-15.85L96.44-15.85 96.44 0 93.79 0 93.79-15.85Q93.79-18.4 92.69-19.93 91.59-21.45 88.89-21.45 86.19-21.45 81.54-19.4ZM103.34-11.85Q103.34-17.6 105.72-20.83 108.09-24.05 112.64-24.05 117.19-24.05 119.42-21.05 121.64-18.05 121.64-13.05L121.64-13.05 121.49-10.55 106.19-10.55Q106.44-6.8 108.19-4.48 109.94-2.15 113.02-2.15 116.09-2.15 120.24-3.6L120.24-3.6 120.99-1.1Q116.94 0.45 113.39 0.45L113.39 0.45Q108.49 0.45 105.92-2.83 103.34-6.1 103.34-11.85ZM112.84-21.5L112.84-21.5Q106.54-21.5 106.19-13.05L106.19-13.05 118.79-13.05Q118.79-21.5 112.84-21.5ZM134.24-21.25L129.54-21.25 129.54-23.75 136.89-23.75 136.99-20.85Q138.59-21.85 141.49-22.85 144.39-23.85 146.59-24.05L146.59-24.05 146.59-21.1Q144.54-20.95 141.51-20.1 138.49-19.25 136.99-18.35L136.99-18.35 136.99-2.5 144.99-2.5 144.99 0 129.54 0 129.54-2.5 134.24-2.5 134.24-21.25Z" opacity="1" transform="matrix(1,0,0,1,0,0)" fill="#ffffff" class="wordmark-text-0" data-fill-palette-color="primary" id="text-0"></path></svg></g></svg></g></svg></g></svg></g></svg></g><defs></defs></svg><rect width="395.52" height="92.43428571428572" fill="none" stroke="none" visibility="hidden"></rect></g></svg></g></svg>