<svg xmlns="http://www.w3.org/2000/svg" version="1.1" xmlns:xlink="http://www.w3.org/1999/xlink" xmlns:svgjs="http://svgjs.dev/svgjs" width="128" height="128" viewBox="0 0 128 128"><g transform="matrix(0.40711462450592883,0,0,0.40711462450592883,37.990775490649,12.760752631578939)"><svg viewBox="0 0 48 95" data-background-color="#001f3f" preserveAspectRatio="xMidYMid meet" height="253" width="128" xmlns="http://www.w3.org/2000/svg" xmlns:xlink="http://www.w3.org/1999/xlink"><g id="tight-bounds" transform="matrix(1,0,0,1,-0.04247402597401617,-0.24049999999999727)"><svg viewBox="0 0 48.08494805194805 95.481" height="95.481" width="48.08494805194805"><g><svg viewBox="0 0 48.08494805194805 95.481" height="95.481" width="48.08494805194805"><g><svg viewBox="0 0 48.08494805194805 95.481" height="95.481" width="48.08494805194805"><g><svg viewBox="0 0 48.08494805194805 95.481" height="95.481" width="48.08494805194805"><g id="textblocktransform"><svg viewBox="0 0 48.08494805194805 95.481" height="95.481" width="48.08494805194805" id="textblock"><g><svg viewBox="0 0 48.08494805194805 95.481" height="95.481" width="48.08494805194805"><g transform="matrix(1,0,0,1,0,0)"><svg width="48.08494805194805" viewBox="3.25 -34.05 17.45 34.65" height="95.481" data-palette-color="url(#1f489872-3d57-4d58-8cdc-fc7d8c43469b)"><g class="wordmark-text-0" data-fill-palette-color="primary" id="text-0"></g></svg></g></svg></g></svg></g></svg></g></svg></g></svg></g><defs></defs><mask id="efa91359-8400-4563-9774-6d7c9f5ef733"><g id="SvgjsG1308"><svg viewBox="0 0 48.08494805194805 95.481" height="95.481" width="48.08494805194805"><g><svg viewBox="0 0 48.08494805194805 95.481" height="95.481" width="48.08494805194805"><g><svg viewBox="0 0 48.08494805194805 95.481" height="95.481" width="48.08494805194805"><g><svg viewBox="0 0 48.08494805194805 95.481" height="95.481" width="48.08494805194805"><g id="SvgjsG1307"><svg viewBox="0 0 48.08494805194805 95.481" height="95.481" width="48.08494805194805" id="SvgjsSvg1306"><g><svg viewBox="0 0 48.08494805194805 95.481" height="95.481" width="48.08494805194805"><g transform="matrix(1,0,0,1,0,0)"><svg width="48.08494805194805" viewBox="3.25 -34.05 17.45 34.65" height="95.481" data-palette-color="url(#1f489872-3d57-4d58-8cdc-fc7d8c43469b)"><g class="wordmark-text-0" data-fill-palette-color="primary" id="SvgjsG1305"><path d="M3.25-10.75L3.25-32.85 10.7-34.05 10.7-26.3 19.65-26.3 19.65-20.1 10.7-20.1 10.7-10.85Q10.7-8.5 11.53-7.1 12.35-5.7 14.85-5.7L14.85-5.7Q16.05-5.7 17.32-5.93 18.6-6.15 19.65-6.55L19.65-6.55 20.7-0.75Q19.35-0.2 17.7 0.2 16.05 0.6 13.65 0.6L13.65 0.6Q10.6 0.6 8.6-0.23 6.6-1.05 5.4-2.53 4.2-4 3.73-6.1 3.25-8.2 3.25-10.75L3.25-10.75Z" fill="white"></path></g></svg></g></svg></g></svg></g></svg></g></svg></g></svg></g><defs><mask></mask></defs></svg><rect width="48.08494805194805" height="95.481" fill="black" stroke="none" visibility="hidden"></rect></g></mask><linearGradient x1="0" x2="1" y1="0.5" y2="0.5" id="1f489872-3d57-4d58-8cdc-fc7d8c43469b"><stop stop-color="#f00b51" offset="0"></stop><stop stop-color="#730062" offset="1"></stop></linearGradient><rect width="48.08494805194805" height="95.481" fill="url(#1f489872-3d57-4d58-8cdc-fc7d8c43469b)" mask="url(#efa91359-8400-4563-9774-6d7c9f5ef733)" data-fill-palette-color="primary"></rect></svg><rect width="48.08494805194805" height="95.481" fill="none" stroke="none" visibility="hidden"></rect></g></svg></g></svg>