<svg xmlns="http://www.w3.org/2000/svg" version="1.1" xmlns:xlink="http://www.w3.org/1999/xlink" xmlns:svgjs="http://svgjs.dev/svgjs" width="128" height="128" viewBox="0 0 128 128"><g transform="matrix(0.8046875,0,0,0.8046875,12.760752631578946,32.695322639181896)"><svg viewBox="0 0 95 58" data-background-color="#191f3f" preserveAspectRatio="xMidYMid meet" height="78" width="128" xmlns="http://www.w3.org/2000/svg" xmlns:xlink="http://www.w3.org/1999/xlink"><g id="tight-bounds" transform="matrix(1,0,0,1,-0.24049999999999727,-0.07220254833039519)"><svg viewBox="0 0 95.481 58.14440509666079" height="58.14440509666079" width="95.481"><g><svg viewBox="0 0 95.481 58.14440509666079" height="58.14440509666079" width="95.481"><g><svg viewBox="0 0 95.481 58.14440509666079" height="58.14440509666079" width="95.481"><g><svg viewBox="0 0 95.481 58.14440509666079" height="58.14440509666079" width="95.481"><g id="textblocktransform"><svg viewBox="0 0 95.481 58.14440509666079" height="58.14440509666079" width="95.481" id="textblock"><g><svg viewBox="0 0 95.481 58.14440509666079" height="58.14440509666079" width="95.481"><g transform="matrix(1,0,0,1,0,0)"><svg width="95.481" viewBox="1 -34.65 56.9 34.65" height="58.14440509666079" data-palette-color="#f00b51"><path d="M1-34.65L29.7-34.65 29.7-28 19.25-28 19.25 0 11.45 0 11.45-28 1-28 1-34.65ZM42.5 0L34.7 0 34.7-34.65 57.9-34.65 57.9-28.1 42.5-28.1 42.5-20.85 56.2-20.85 56.2-14.3 42.5-14.3 42.5 0Z" opacity="1" transform="matrix(1,0,0,1,0,0)" fill="#f00b51" class="wordmark-text-0" data-fill-palette-color="primary" id="text-0"></path></svg></g></svg></g></svg></g></svg></g></svg></g></svg></g><defs></defs></svg><rect width="95.481" height="58.14440509666079" fill="none" stroke="none" visibility="hidden"></rect></g></svg></g></svg>