<svg version="1.1" id="Layer_1" xmlns="http://www.w3.org/2000/svg" xmlns:xlink="http://www.w3.org/1999/xlink" x="0px" y="0px"
	 width="10%" viewBox="0 0 500 500" enable-background="new 0 0 500 500" xml:space="preserve">
<path fill="#F00B51" opacity="1.000000" stroke="none" 
	d="
M501.000000,110.000000 
	C501.000000,240.247025 501.000000,370.494049 501.000000,501.000000 
	C411.312592,501.000000 321.624969,501.000000 231.468781,500.531342 
	C231.000305,350.780426 231.002884,201.498138 230.996277,52.215870 
	C230.995667,38.529369 221.519501,28.941887 207.928528,28.942469 
	C138.952347,28.945417 69.976173,28.977877 1.000000,29.000000 
	C1.000000,19.674015 1.000000,10.348031 1.000000,1.041935 
	C167.666672,1.041935 334.333344,1.041935 501.000000,1.041935 
	C501.000000,10.076808 501.000000,19.069746 500.531525,28.517185 
	C427.072357,28.970234 354.081696,28.965710 281.091003,28.969923 
	C266.547058,28.970764 257.130554,38.414295 257.066254,53.095165 
	C257.021759,63.260338 257.052521,73.425873 257.060516,83.591240 
	C257.074219,101.034569 266.042328,109.995209 283.529388,109.996918 
	C356.019592,110.003998 428.509796,109.999962 501.000000,110.000000 
M264.183624,211.666992 
	C259.856781,215.943649 257.231598,221.104919 257.148865,227.188751 
	C256.979034,239.679276 256.794586,252.183167 257.183289,264.663879 
	C257.560455,276.774506 267.119446,286.055420 279.132202,286.081573 
	C332.103058,286.197021 385.074493,286.204193 438.045319,286.088623 
	C450.958405,286.060425 460.021912,276.454163 460.072876,263.391998 
	C460.117737,251.898361 460.111115,240.404358 460.077545,228.910645 
	C460.036285,214.782211 450.824219,205.423386 436.640015,205.406494 
	C384.668091,205.344604 332.696106,205.385666 280.724121,205.375015 
	C274.670197,205.373779 269.244232,207.029724 264.183624,211.666992 
z"/>
<path fill="#F00B51" opacity="1.000000" stroke="none" 
	d="
M145.000000,501.000000 
	C97.039276,501.000000 49.078556,501.000000 1.000000,501.000000 
	C1.000000,370.979126 1.000000,240.958221 1.468657,110.468658 
	C49.529366,110.000008 97.121414,110.000008 145.000000,110.000008 
	C145.000000,240.744385 145.000000,370.872192 145.000000,501.000000 
z"/>
<path fill="#FFFFFF" opacity="1.000000" stroke="none" 
	d="
M145.468658,501.000000 
	C145.000000,370.872192 145.000000,240.744385 145.000000,110.000008 
	C97.121414,110.000008 49.529366,110.000008 1.468657,110.000000 
	C1.000000,83.312439 1.000000,56.624878 1.000000,29.468658 
	C69.976173,28.977877 138.952347,28.945417 207.928528,28.942469 
	C221.519501,28.941887 230.995667,38.529369 230.996277,52.215870 
	C231.002884,201.498138 231.000305,350.780426 231.000122,500.531342 
	C202.645767,501.000000 174.291550,501.000000 145.468658,501.000000 
z"/>
<path fill="#FFFFFF" opacity="1.000000" stroke="none" 
	d="
M501.000000,109.531342 
	C428.509796,109.999962 356.019592,110.003998 283.529388,109.996918 
	C266.042328,109.995209 257.074219,101.034569 257.060516,83.591240 
	C257.052521,73.425873 257.021759,63.260338 257.066254,53.095165 
	C257.130554,38.414295 266.547058,28.970764 281.091003,28.969923 
	C354.081696,28.965710 427.072357,28.970234 500.531525,28.985844 
	C501.000000,55.687561 501.000000,82.375122 501.000000,109.531342 
z"/>
<path fill="#FFFEFE" opacity="1.000000" stroke="none" 
	d="
M264.442932,211.418396 
	C269.244232,207.029724 274.670197,205.373779 280.724121,205.375015 
	C332.696106,205.385666 384.668091,205.344604 436.640015,205.406494 
	C450.824219,205.423386 460.036285,214.782211 460.077545,228.910645 
	C460.111115,240.404358 460.117737,251.898361 460.072876,263.391998 
	C460.021912,276.454163 450.958405,286.060425 438.045319,286.088623 
	C385.074493,286.204193 332.103058,286.197021 279.132202,286.081573 
	C267.119446,286.055420 257.560455,276.774506 257.183289,264.663879 
	C256.794586,252.183167 256.979034,239.679276 257.148865,227.188751 
	C257.231598,221.104919 259.856781,215.943649 264.442932,211.418396 
z"/>
</svg>