<svg xmlns="http://www.w3.org/2000/svg" version="1.1" xmlns:xlink="http://www.w3.org/1999/xlink" xmlns:svgjs="http://svgjs.dev/svgjs" width="32" height="32" viewBox="0 0 128 128"><g transform="matrix(0.8046875,0,0,0.8046875,12.506335372881338,27.686326434732138)"><svg viewBox="0 0 59 42" data-background-color="#000000" preserveAspectRatio="xMidYMid meet" height="91" width="128" xmlns="http://www.w3.org/2000/svg" xmlns:xlink="http://www.w3.org/1999/xlink"><g id="tight-bounds" transform="matrix(1,0,0,1,-0.0036289999999894462,-0.17184369072015215)"><svg viewBox="0 0 59.00725799999999 42.34368738144032" height="42.34368738144032" width="59.00725799999999"><g><svg viewBox="0 0 59.00725799999999 42.34368738144032" height="42.34368738144032" width="59.00725799999999"><g><svg viewBox="0 0 59.00725799999999 42.34368738144032" height="42.34368738144032" width="59.00725799999999"><g><svg viewBox="0 0 59.00725799999999 42.34368738144032" height="42.34368738144032" width="59.00725799999999"><g id="textblocktransform"><svg viewBox="0 0 59.00725799999999 42.34368738144032" height="42.34368738144032" width="59.00725799999999" id="textblock"><g><svg viewBox="0 0 59.00725799999999 42.34368738144032" height="42.34368738144032" width="59.00725799999999"><g><svg viewBox="0 0 59.00725799999999 42.34368738144032" height="42.34368738144032" width="59.00725799999999"><g><svg xmlns="http://www.w3.org/2000/svg" viewBox="10.010421718225015 24.127411663603844 99.97915656354999 71.74517667279233" x="0" y="0" height="42.34368738144032" width="59.00725799999999" class="icon-icon-0" data-fill-palette-color="accent" id="icon-0"></svg></g></svg></g></svg></g></svg></g></svg></g></svg></g></svg></g><defs></defs><mask id="86c72e0a-9f83-4ca5-a128-0238d64d9e43"><g id="SvgjsG1651"><svg viewBox="0 0 59.00725799999999 42.34368738144032" height="42.34368738144032" width="59.00725799999999"><g><svg viewBox="0 0 59.00725799999999 42.34368738144032" height="42.34368738144032" width="59.00725799999999"><g><svg viewBox="0 0 59.00725799999999 42.34368738144032" height="42.34368738144032" width="59.00725799999999"><g><svg viewBox="0 0 59.00725799999999 42.34368738144032" height="42.34368738144032" width="59.00725799999999"><g id="SvgjsG1650"><svg viewBox="0 0 59.00725799999999 42.34368738144032" height="42.34368738144032" width="59.00725799999999" id="SvgjsSvg1649"><g><svg viewBox="0 0 59.00725799999999 42.34368738144032" height="42.34368738144032" width="59.00725799999999"><g><svg viewBox="0 0 59.00725799999999 42.34368738144032" height="42.34368738144032" width="59.00725799999999"><g><svg xmlns="http://www.w3.org/2000/svg" viewBox="10.010421718225015 24.127411663603844 99.97915656354999 71.74517667279233" x="0" y="0" height="42.34368738144032" width="59.00725799999999" class="icon-icon-0" data-fill-palette-color="accent" id="SvgjsSvg1648"><path d="M28 93.83a2 2 0 0 0-0.59-1.41 45.89 45.89 0 0 1 0-64.83A2 2 0 0 0 28 26.17h0a2 2 0 0 0-3.44-1.43 50 50 0 0 0 0 70.52A2 2 0 0 0 28 93.83Z" fill="white"></path><path d="M92 26.17h0a2 2 0 0 0 0.59 1.41 45.89 45.89 0 0 1 0 64.83A2 2 0 0 0 92 93.83h0a2 2 0 0 0 3.44 1.43 50 50 0 0 0 0-70.52A2 2 0 0 0 92 26.17Z" fill="white"></path></svg></g></svg></g></svg></g></svg></g></svg></g></svg></g></svg></g><defs><mask></mask></defs></svg><rect width="59.00725799999999" height="42.34368738144032" fill="black" stroke="none" visibility="hidden"></rect></g></mask><linearGradient x1="0" x2="1" y1="0.578" y2="0.595" id="dbfb2ca2-67fa-4044-918c-fcfd16a3e64b"><stop stop-color="#6ee2f5" offset="0"></stop><stop stop-color="#6454f0" offset="1"></stop></linearGradient><rect width="59.00725799999999" height="42.34368738144032" fill="url(#dbfb2ca2-67fa-4044-918c-fcfd16a3e64b)" mask="url(#86c72e0a-9f83-4ca5-a128-0238d64d9e43)" data-fill-palette-color="accent"></rect></svg><rect width="59.00725799999999" height="42.34368738144032" fill="none" stroke="none" visibility="hidden"></rect></g></svg></g></svg>