<svg xmlns="http://www.w3.org/2000/svg" version="1.1" xmlns:xlink="http://www.w3.org/1999/xlink" xmlns:svgjs="http://svgjs.dev/svgjs" width="32" height="32" viewBox="0 0 128 128"><g transform="matrix(0.8046875,0,0,0.8046875,12.832035128281362,6.87421580429023)"><svg viewBox="0 0 53 59" data-background-color="#000000" preserveAspectRatio="xMidYMid meet" height="142" width="128" xmlns="http://www.w3.org/2000/svg" xmlns:xlink="http://www.w3.org/1999/xlink"><g id="tight-bounds" transform="matrix(1,0,0,1,-0.17085302717390505,-0.0036289999999894462)"><svg viewBox="0 0 53.341706054347824 59.00725799999999" height="59.00725799999999" width="53.341706054347824"><g><svg viewBox="0 0 53.341706054347824 59.00725799999999" height="59.00725799999999" width="53.341706054347824"><g><svg viewBox="0 0 53.341706054347824 59.00725799999999" height="59.00725799999999" width="53.341706054347824"><g><svg viewBox="0 0 53.341706054347824 59.00725799999999" height="59.00725799999999" width="53.341706054347824"><g id="textblocktransform"><svg viewBox="0 0 53.341706054347824 59.00725799999999" height="59.00725799999999" width="53.341706054347824" id="textblock"><g><svg viewBox="0 0 53.341706054347824 59.00725799999999" height="59.00725799999999" width="53.341706054347824"><g><svg viewBox="0 0 53.341706054347824 59.00725799999999" height="59.00725799999999" width="53.341706054347824"><g><svg xmlns="http://www.w3.org/2000/svg" xmlns:xlink="http://www.w3.org/1999/xlink" version="1.1" x="0" y="0" viewBox="25.299999999999994 12 249.50000000000003 276" style="enable-background:new 0 0 300 300;" xml:space="preserve" height="59.00725799999999" width="53.341706054347824" class="icon-icon-0" data-fill-palette-color="accent" id="icon-0"></svg></g></svg></g></svg></g></svg></g></svg></g></svg></g></svg></g><defs></defs><mask id="1535da73-0d41-4713-99bc-8a25a4b01c3c"><g id="SvgjsG1403"><svg viewBox="0 0 53.341706054347824 59.00725799999999" height="59.00725799999999" width="53.341706054347824"><g><svg viewBox="0 0 53.341706054347824 59.00725799999999" height="59.00725799999999" width="53.341706054347824"><g><svg viewBox="0 0 53.341706054347824 59.00725799999999" height="59.00725799999999" width="53.341706054347824"><g><svg viewBox="0 0 53.341706054347824 59.00725799999999" height="59.00725799999999" width="53.341706054347824"><g id="SvgjsG1402"><svg viewBox="0 0 53.341706054347824 59.00725799999999" height="59.00725799999999" width="53.341706054347824" id="SvgjsSvg1401"><g><svg viewBox="0 0 53.341706054347824 59.00725799999999" height="59.00725799999999" width="53.341706054347824"><g><svg viewBox="0 0 53.341706054347824 59.00725799999999" height="59.00725799999999" width="53.341706054347824"><g><svg xmlns="http://www.w3.org/2000/svg" xmlns:xlink="http://www.w3.org/1999/xlink" version="1.1" x="0" y="0" viewBox="25.299999999999994 12 249.50000000000003 276" style="enable-background:new 0 0 300 300;" xml:space="preserve" height="59.00725799999999" width="53.341706054347824" class="icon-icon-0" data-fill-palette-color="accent" id="SvgjsSvg1400"><g fill="white"><g fill="white"><path d="M127.8 288h-21.5c-24.4 0-46.1-16.3-61.2-45.8-12.8-25-19.8-57.7-19.8-92.2s7-67.2 19.8-92.2C60.1 28.3 81.9 12 106.3 12h21.5v43h-21.5c-15.1 0-38 37.9-38 95 0 57.1 22.9 95 38 95h21.5V288z" fill="white"></path></g><g fill="white"><path d="M193.8 288h-21.5v-43h21.5c15.1 0 38-37.9 38-95 0-57.1-22.9-95-38-95h-21.5V12h21.5c24.4 0 46.1 16.3 61.2 45.8 12.8 25 19.8 57.7 19.8 92.2s-7 67.2-19.8 92.2C239.9 271.7 218.1 288 193.8 288z" fill="white"></path></g></g></svg></g></svg></g></svg></g></svg></g></svg></g></svg></g></svg></g><defs><mask></mask></defs></svg><rect width="53.341706054347824" height="59.00725799999999" fill="black" stroke="none" visibility="hidden"></rect></g></mask><linearGradient x1="0" x2="1" y1="0.578" y2="0.595" id="da2c572f-a98e-4b0c-883e-a4785f374efb"><stop stop-color="#6ee2f5" offset="0"></stop><stop stop-color="#6454f0" offset="1"></stop></linearGradient><rect width="53.341706054347824" height="59.00725799999999" fill="#ffffff" mask="url(#1535da73-0d41-4713-99bc-8a25a4b01c3c)" data-fill-palette-color="accent"></rect></svg><rect width="53.341706054347824" height="59.00725799999999" fill="none" stroke="none" visibility="hidden"></rect></g></svg></g></svg>