<svg xmlns="http://www.w3.org/2000/svg" xmlns:xlink="http://www.w3.org/1999/xlink" width="500" zoomAndPan="magnify" viewBox="0 0 375 149.999998" height="200" preserveAspectRatio="xMidYMid meet" version="1.0"><defs><g/></defs><g fill="#ff5757" fill-opacity="1"><g transform="translate(137.46685, 114.27502)"><g><path d="M 45.203125 -26.46875 C 43.453125 -21.640625 39.703125 -18.640625 35.296875 -18.640625 L 34.875 -18.640625 L 38.625 -28.796875 C 39.453125 -31.046875 39.875 -33.296875 39.875 -35.296875 C 39.875 -43.453125 33.703125 -48.859375 26.390625 -48.859375 C 24.96875 -48.859375 23.71875 -48.6875 22.390625 -48.28125 L 27.796875 -63.84375 C 28.140625 -64.921875 28.390625 -65.84375 28.390625 -66.75 C 28.390625 -70.25 25.546875 -72.25 22.640625 -72.25 C 20.0625 -72.25 17.5625 -70.671875 16.390625 -67.25 C 10.40625 -49.78125 5.328125 -35.796875 0 -20.3125 C -0.75 -18.234375 -1.171875 -15.8125 -1.171875 -13.90625 C -1.171875 -4.828125 6.328125 0 14.65625 0 C 20.71875 0 27.46875 -2.328125 31.046875 -8.984375 C 32.046875 -8.828125 33.125 -8.734375 34.203125 -8.734375 C 43.03125 -8.734375 51.9375 -13.984375 54.9375 -23.46875 C 55.09375 -23.96875 55.1875 -24.390625 55.1875 -24.796875 C 55.1875 -27.546875 52.265625 -29.296875 49.53125 -29.296875 C 47.6875 -29.296875 45.859375 -28.46875 45.203125 -26.46875 Z M 20.46875 -14.3125 L 20.3125 -13.65625 C 19.3125 -10.90625 16.8125 -9.90625 14.65625 -9.90625 C 12.234375 -9.90625 10.65625 -11.234375 10.65625 -13.5625 C 10.65625 -14.3125 10.734375 -15.15625 11.0625 -16.0625 C 13.3125 -22.3125 15.15625 -27.546875 17.3125 -33.875 C 18.984375 -36.953125 21.640625 -39.03125 24.0625 -39.03125 C 26.21875 -39.03125 27.71875 -37.625 27.71875 -35.546875 C 27.71875 -34.953125 27.640625 -34.296875 27.390625 -33.625 L 25.640625 -28.625 C 25.140625 -28.796875 25.71875 -28.625 25.140625 -28.625 C 21.0625 -28.625 17.8125 -25.296875 17.8125 -21.0625 C 17.8125 -18.640625 18.734375 -16.3125 20.46875 -14.3125 Z M 20.46875 -14.3125 "/></g></g></g><g fill="#f00b51" fill-opacity="1"><g transform="translate(139.687466, 114.374995)"><g><path d="M 45.734375 -26.78125 C 43.96875 -21.90625 40.1875 -18.875 35.71875 -18.875 L 35.296875 -18.875 L 39.078125 -29.140625 C 39.921875 -31.421875 40.34375 -33.6875 40.34375 -35.71875 C 40.34375 -43.96875 34.109375 -49.453125 26.703125 -49.453125 C 25.265625 -49.453125 24 -49.28125 22.65625 -48.859375 L 28.140625 -64.609375 C 28.46875 -65.703125 28.71875 -66.625 28.71875 -67.5625 C 28.71875 -71.09375 25.859375 -73.109375 22.90625 -73.109375 C 20.296875 -73.109375 17.78125 -71.515625 16.59375 -68.0625 C 10.53125 -50.375 5.390625 -36.21875 0 -20.546875 C -0.765625 -18.453125 -1.171875 -16 -1.171875 -14.0625 C -1.171875 -4.890625 6.40625 0 14.828125 0 C 20.96875 0 27.796875 -2.359375 31.421875 -9.09375 C 32.4375 -8.921875 33.53125 -8.84375 34.625 -8.84375 C 43.546875 -8.84375 52.5625 -14.15625 55.59375 -23.75 C 55.765625 -24.265625 55.84375 -24.6875 55.84375 -25.109375 C 55.84375 -27.875 52.90625 -29.65625 50.125 -29.65625 C 48.265625 -29.65625 46.40625 -28.8125 45.734375 -26.78125 Z M 20.71875 -14.484375 L 20.546875 -13.8125 C 19.546875 -11.03125 17.015625 -10.03125 14.828125 -10.03125 C 12.375 -10.03125 10.78125 -11.375 10.78125 -13.734375 C 10.78125 -14.484375 10.859375 -15.328125 11.203125 -16.25 C 13.484375 -22.578125 15.328125 -27.875 17.515625 -34.28125 C 19.203125 -37.40625 21.90625 -39.5 24.34375 -39.5 C 26.53125 -39.5 28.046875 -38.078125 28.046875 -35.96875 C 28.046875 -35.375 27.96875 -34.703125 27.71875 -34.03125 L 25.9375 -28.984375 C 25.4375 -29.140625 26.03125 -28.984375 25.4375 -28.984375 C 21.3125 -28.984375 18.03125 -25.609375 18.03125 -21.3125 C 18.03125 -18.875 18.953125 -16.515625 20.71875 -14.484375 Z M 20.71875 -14.484375 "/></g></g></g></svg>